<?xml version="1.0" encoding="UTF-8"?>
<svg xmlns="http://www.w3.org/2000/svg" viewBox="0 0 329.47582 329.48272">
  <defs>
    <style>.d{fill:#f2f2f2;}</style>
  </defs>
  <g id="a"></g>
  <g id="b">
    <g id="c">
      <g>
        <path class="d" d="M164.74136,329.48272c-42.81453,0-81.46634-26.77116-96.81938-66.8209C27.20607,247.60563,0,208.512,0,164.74136S27.20607,81.87709,67.92198,66.8209C83.27502,26.77116,121.92683,0,164.74136,0s81.45944,26.77116,96.81247,66.8209c40.71591,15.05619,67.92198,54.14982,67.92198,97.92046s-27.20607,82.86427-67.92198,97.92046c-15.35303,40.04974-53.99794,66.8209-96.81247,66.8209Zm0-320.99851c-39.92203,0-75.90915,25.35943-89.54325,63.1069l-.69033,1.89842-1.90532,.66617C34.24748,87.49641,8.4773,123.90119,8.4773,164.74136s25.77018,77.24495,64.12515,90.58566l1.90532,.66617,.69033,1.89842c13.6341,37.74748,49.62122,63.1069,89.54325,63.1069,39.91513,0,75.90225-25.35943,89.53635-63.1069l.69033-1.89842,1.90532-.66617c38.35497-13.34071,64.12515-49.74548,64.12515-90.58566s-25.77018-77.24495-64.12515-90.58566l-1.90532-.66617-.69033-1.89842c-13.6341-37.74748-49.62122-63.1069-89.53635-63.1069Z"></path>
        <g>
          <path class="d" d="M241.02651,207.37191c23.18372-2.1106,40.32776-22.69,38.21716-45.87366-1.39172-15.28613-10.82678-27.91522-23.7301-34.15894-.76685,2.73291-1.64673,5.41693-2.64697,8.04364,9.82483,5.159,16.93335,15.02728,18.01196,26.87683,1.69067,18.57159-12.04309,35.05634-30.61353,36.74701-2.76465,.25165-5.47656,.14325-8.10437-.25574-1.22937,2.67615-2.61414,5.26959-4.16382,7.75647,4.17151,.93732,8.54724,1.27246,13.02966,.86438Z"></path>
          <path class="d" d="M304.34292,165.39621c0-29.41296-18.28394-54.89813-45.32056-64.62946,.00342,.32843,.02478,.65228,.02478,.98157,0,2.65375-.13721,5.27411-.35168,7.8725,22.33423,9.18292,37.24768,30.88055,37.24768,55.77539,0,27.95282-19.09485,51.52295-44.92322,58.37079-4.38904,1.1272-8.80371,1.69769-13.19739,1.69769-9.61694,0-19.02411-2.84625-27.30402-7.67273-3.32648-1.93909-6.48584-4.17548-9.41669-6.67303,11.94629-10.26074,19.53589-25.45819,19.53589-42.40289,0-30.82343-25.07983-55.90326-55.90326-55.90326s-55.89636,25.07983-55.89636,55.90326,25.07294,55.90326,55.89636,55.90326c10.69604,0,20.69708-3.02502,29.2019-8.25708,.74408,.60352,1.38104,1.1228,1.68573,1.37976,1.98993,1.67834,4.05762,3.26501,6.20123,4.74219,4.07672,2.8092,8.43158,5.2226,13.01166,7.10797,3.33453,1.37274,6.78564,2.46417,10.30939,3.23248,.84827,.18494,10.41437,1.6087,10.41437,1.35693,.33276,0,.66052-.02051,.99219-.02521,.31567,.00525,.63037,.02521,.94629,.02521,8.25732,0,16.61206-1.7384,24.8313-5.16675,2.31812-.96619,4.54492-2.12,6.72021-3.3645-.04565-.04205-.0946-.08069-.14038-.12262,21.11304-11.75684,35.43457-34.29834,35.43457-60.13147Zm-187.02753,3.31982c0-26.14642,21.27612-47.41907,47.41907-47.41907,26.14984,0,47.42596,21.27264,47.42596,47.41907,0,14.63745-6.6709,27.74426-17.12915,36.44958-.04785-.05444-.09888-.10602-.14655-.16064-3.72974-4.27582-7.45947-8.55157-11.18921-12.82739-1.99207-2.28369-3.98407-4.56738-5.97614-6.85101l-11.65369,.60144c2.23389,2.54968,4.46777,5.0993,6.70166,7.64899,4.03082,4.60065,8.06165,9.20129,12.09253,13.80194,.86224,.98413,1.72449,1.96832,2.58673,2.95245-6.74927,3.69733-14.48889,5.80371-22.71216,5.80371-26.14294,0-47.41907-21.27264-47.41907-47.41907Z"></path>
        </g>
        <g>
          <path class="d" d="M96.43165,122.24131c-23.27961,0-42.21875,18.94031-42.21875,42.21992,0,16.30472,9.30683,30.45195,22.87195,37.48264,.87199-2.69521,1.85823-5.33828,2.96752-7.91733-10.38799-5.77845-17.43978-16.85914-17.43978-29.56531,0-18.64853,15.1717-33.82023,33.81906-33.82023,1.83406,0,3.61422,.20361,5.3667,.49188,1.56645-2.61758,3.299-5.12164,5.16953-7.51422-3.37121-.87799-6.89271-1.37734-10.53623-1.37734Z"></path>
          <path class="d" d="M35.0101,165.35006c0-35.81117,29.13408-64.94525,64.94525-64.94525,9.47294,0,18.45415,2.07956,26.5726,5.7452,2.93412-1.79569,6.00666-3.38557,9.19375-4.76101-10.58984-5.95115-22.77586-9.38388-35.76635-9.38388-40.44225,0-73.34494,32.90269-73.34494,73.34494,0,30.8243,19.12341,57.24983,46.12124,68.08459-.04014-1.11178-.08466-2.22267-.08466-3.34426,0-1.93191,.08012-3.84434,.19833-5.74652-22.30757-10.29249-37.83522-32.85699-37.83522-58.99381Z"></path>
          <path class="d" d="M207.46694,95.33356c-.88415-23.26276-20.5302-41.46878-43.7931-40.58463-16.29285,.61931-30.07638,10.45684-36.58678,24.27932,2.72641,.76887,5.40507,1.65404,8.02441,2.6646,5.37959-10.59995,16.18446-18.06759,28.8814-18.55024,18.6352-.70837,34.37216,13.8761,35.08054,32.50998,.10385,2.73022-.14516,5.38911-.66472,7.95425,2.61201,1.35361,5.13892,2.84696,7.55553,4.49383,1.11925-4.05805,1.67089-8.34095,1.50273-12.7671Z"></path>
          <path class="d" d="M162.05627,35.59374c35.78539-1.3602,66.00502,26.64613,67.36537,62.43152,.37601,9.89348-1.52997,19.34035-5.18975,27.88739,1.9407,2.69258,3.70724,5.51728,5.27412,8.46663,5.73641-10.94461,8.81129-23.46227,8.30916-36.67305-1.53612-40.4131-35.66484-72.0423-76.07794-70.50603-30.80203,1.17081-56.48213,21.28427-66.28363,48.67407,1.10943-.08232,2.21784-.16904,3.33869-.21166,1.93045-.07339,3.84463-.06592,5.74988-.02007,9.43778-22.68241,31.39615-39.05597,57.51408-40.04881Z"></path>
          <path class="d" d="M123.60818,238.73865c3.23279,23.05403,24.61974,39.17931,47.67377,35.94652,15.7582-2.20978,28.22957-12.92223,33.54265-26.83069-2.03855-.72785-7.24089-2.69697-7.85215-2.8641-4.27982,11.08977-14.27393,19.61207-26.85691,21.37655-18.46792,2.58975-35.59951-10.32808-38.18897-28.79483-.16215-1.15601-.22587-2.30133-.26498-3.4424-2.87143-1.45483-5.63885-3.08265-8.27753-4.88903-.27626,3.10404-.2269,6.28131,.22411,9.49799Z"></path>
          <path class="d" d="M226.37605,252.59556c-8.23109,21.26464-27.40753,37.59792-51.54711,40.9829-35.46431,4.97311-68.36187-19.83281-73.33498-55.29697-1.39214-9.92746-.41688-19.63829,2.44151-28.60455-.76301-1.13038-1.48603-2.28947-2.18649-3.46364-1.25694-1.70003-2.46612-3.43947-3.56852-5.26006-4.95216,11.76343-6.90267,24.96045-5.00475,38.49467,5.61615,40.05042,42.76922,68.0651,82.81964,62.44895,28.25227-3.96196,50.46991-23.63511,59.16094-48.931-.22104,.00161-.43885,.0167-.66033,.0167-2.73916,0-5.44433-.14267-8.11991-.387Z"></path>
        </g>
      </g>
    </g>
  </g>
</svg>
